<svg viewBox="0 0 24 24" xmlns="http://www.w3.org/2000/svg">
<g id="settings_24px">
<path id="icon/action/settings_24px" fill-rule="evenodd" clip-rule="evenodd" d="M19.4252 13.01L19.4352 12.99L21.5452 14.65C21.7352 14.79 21.8752 14.91 21.8752 14.91L19.4452 19.11L16.5652 17.96L16.5852 17.92C16.0552 18.33 15.4752 18.67 14.8552 18.93H14.8652L14.4852 21.58C14.4552 21.82 14.4252 22 14.4252 22H9.57523L9.12523 18.92H9.15523C8.52523 18.66 7.95523 18.32 7.42523 17.91L7.44523 17.95L4.56523 19.1L2.13523 14.9C2.13523 14.9 2.27523 14.79 2.46523 14.64L4.56523 12.99L4.57523 13.01C4.52523 12.68 4.49523 12.34 4.49523 12C4.49523 11.66 4.52523 11.34 4.56523 11.01L4.55523 11.03L2.11523 9.11L4.55523 4.89L7.43523 6.06L7.42523 6.07C7.94523 5.67 8.51523 5.33 9.13523 5.07H9.12523L9.56523 2H14.4352L14.8952 5.06H14.8852C15.5052 5.32 16.0752 5.66 16.5952 6.06L16.5852 6.05L19.4552 4.89L21.8852 9.11L19.4452 11.03L19.4352 11.01C19.4752 11.34 19.5052 11.66 19.5052 12C19.5052 12.34 19.4652 12.68 19.4252 13.01ZM8.49523 12C8.49523 13.93 10.0652 15.5 11.9952 15.5C13.9252 15.5 15.4952 13.93 15.4952 12C15.4952 10.07 13.9252 8.5 11.9952 8.5C10.0652 8.5 8.49523 10.07 8.49523 12Z" />
</g>
</svg>
